# xmcd
#
# Track frame offsets:
#	150
#	12519
#	24788
#	34562
#	49443
#	62904
#	73398
#	90048
#	102277
#	116574
#
# Disc length: 1735
#
# Revision: 1
# Processed by: cddbd v1.5.1PL0 Copyright (c) Steve Scherf et al.
# Submitted via: dBpowerAMP V4.0
# Normalized: r0:TDELIM( - )
#
DISCID=7d06c50a
DTITLE=Various Artist - Country Classics of 1973
DYEAR=1973
DGENRE=Country
TTITLE0=Charlie Rich - Behind Closed Doors
TTITLE1=Johnny Russell - Rednecks, White Socks and Blue Ribbon Beer
TTITLE2=Johnny Paycheck - mr. Lovemaker
TTITLE3=Donna Fargo - You Where Always There
TTITLE4=Lynn Anderson - Keep me in Mind
TTITLE5=Barbara Fairchild - Kid Stuff
TTITLE6=Ray Price - You're The Best Thing That Ever Happened to Me
TTITLE7=Jeanne Pruett - Satin Sheets
TTITLE8=Don Gibson - Touch The Morning
TTITLE9=Johnny Carver - Tie a Yellow Ribbon Round The Old Oak Tree
EXTD=
EXTT0=
EXTT1=
EXTT2=
EXTT3=
EXTT4=
EXTT5=
EXTT6=
EXTT7=
EXTT8=
EXTT9=
PLAYORDER=
